<svg xmlns="http://www.w3.org/2000/svg" width="277" height="241" viewBox="0 0 277 241" fill="none"><path d="M123.245 2.49C123.933 2.49 124.49 1.93259 124.49 1.245C124.49 0.557405 123.933 0 123.245 0C122.557 0 122 0.557405 122 1.245C122 1.93259 122.557 2.49 123.245 2.49Z" fill="#FF6446"></path><path d="M138.245 2.49C138.933 2.49 139.49 1.93259 139.49 1.245C139.49 0.557405 138.933 0 138.245 0C137.557 0 137 0.557405 137 1.245C137 1.93259 137.557 2.49 138.245 2.49Z" fill="#FF6446"></path><path d="M153.245 2.49C153.933 2.49 154.49 1.93259 154.49 1.245C154.49 0.557405 153.933 0 153.245 0C152.557 0 152 0.557405 152 1.245C152 1.93259 152.557 2.49 153.245 2.49Z" fill="#FF6446"></path><path d="M168.245 2.49C168.933 2.49 169.49 1.93259 169.49 1.245C169.49 0.557405 168.933 0 168.245 0C167.557 0 167 0.557405 167 1.245C167 1.93259 167.557 2.49 168.245 2.49Z" fill="#FF6446"></path><path d="M1.245 2.49C1.93259 2.49 2.49 1.93259 2.49 1.245C2.49 0.557405 1.93259 0 1.245 0C0.557405 0 0 0.557405 0 1.245C0 1.93259 0.557405 2.49 1.245 2.49Z" fill="#FF6446"></path><path d="M185.49 1.245C185.49 1.49123 185.417 1.73194 185.28 1.93668C185.143 2.14142 184.949 2.301 184.721 2.39523C184.494 2.48946 184.244 2.51413 184.002 2.46609C183.761 2.41806 183.539 2.29948 183.365 2.12537C183.191 1.95125 183.072 1.72939 183.024 1.48788C182.976 1.24638 183.001 0.996049 183.095 0.768555C183.189 0.541061 183.349 0.346641 183.553 0.209839C183.758 0.0730365 183.999 0 184.245 0C184.575 0 184.892 0.131172 185.125 0.364655C185.359 0.598137 185.49 0.914801 185.49 1.245Z" fill="#FF6446"></path><path d="M17.49 1.245C17.49 1.49123 17.417 1.73194 17.2802 1.93668C17.1434 2.14142 16.9489 2.301 16.7214 2.39523C16.494 2.48946 16.2436 2.51413 16.0021 2.46609C15.7606 2.41806 15.5388 2.29948 15.3647 2.12537C15.1905 1.95125 15.072 1.72939 15.0239 1.48788C14.9759 1.24638 15.0005 0.996049 15.0948 0.768555C15.189 0.541061 15.3486 0.346641 15.5533 0.209839C15.7581 0.0730365 15.9988 0 16.245 0C16.5752 0 16.8919 0.131172 17.1253 0.364655C17.3588 0.598137 17.49 0.914801 17.49 1.245Z" fill="#FF6446"></path><path d="M199.245 2.49C199.933 2.49 200.49 1.93259 200.49 1.245C200.49 0.557405 199.933 0 199.245 0C198.557 0 198 0.557405 198 1.245C198 1.93259 198.557 2.49 199.245 2.49Z" fill="#FF6446"></path><path d="M31.245 2.49C31.9326 2.49 32.49 1.93259 32.49 1.245C32.49 0.557405 31.9326 0 31.245 0C30.5574 0 30 0.557405 30 1.245C30 1.93259 30.5574 2.49 31.245 2.49Z" fill="#FF6446"></path><path d="M214.245 2.49C214.933 2.49 215.49 1.93259 215.49 1.245C215.49 0.557405 214.933 0 214.245 0C213.557 0 213 0.557405 213 1.245C213 1.93259 213.557 2.49 214.245 2.49Z" fill="#FF6446"></path><path d="M47.245 2.49C47.9326 2.49 48.49 1.93259 48.49 1.245C48.49 0.557405 47.9326 0 47.245 0C46.5574 0 46 0.557405 46 1.245C46 1.93259 46.5574 2.49 47.245 2.49Z" fill="#FF6446"></path><path d="M229.245 2.49C229.933 2.49 230.49 1.93259 230.49 1.245C230.49 0.557405 229.933 0 229.245 0C228.557 0 228 0.557405 228 1.245C228 1.93259 228.557 2.49 229.245 2.49Z" fill="#FF6446"></path><path d="M62.245 2.49C62.9326 2.49 63.49 1.93259 63.49 1.245C63.49 0.557405 62.9326 0 62.245 0C61.5574 0 61 0.557405 61 1.245C61 1.93259 61.5574 2.49 62.245 2.49Z" fill="#FF6446"></path><path d="M245.245 2.49C245.933 2.49 246.49 1.93259 246.49 1.245C246.49 0.557405 245.933 0 245.245 0C244.557 0 244 0.557405 244 1.245C244 1.93259 244.557 2.49 245.245 2.49Z" fill="#FF6446"></path><path d="M77.245 2.49C77.9326 2.49 78.49 1.93259 78.49 1.245C78.49 0.557405 77.9326 0 77.245 0C76.5574 0 76 0.557405 76 1.245C76 1.93259 76.5574 2.49 77.245 2.49Z" fill="#FF6446"></path><path d="M260.245 2.49C260.933 2.49 261.49 1.93259 261.49 1.245C261.49 0.557405 260.933 0 260.245 0C259.557 0 259 0.557405 259 1.245C259 1.93259 259.557 2.49 260.245 2.49Z" fill="#FF6446"></path><path d="M92.245 2.49C92.9326 2.49 93.49 1.93259 93.49 1.245C93.49 0.557405 92.9326 0 92.245 0C91.5574 0 91 0.557405 91 1.245C91 1.93259 91.5574 2.49 92.245 2.49Z" fill="#FF6446"></path><path d="M275.245 2.49C275.933 2.49 276.49 1.93259 276.49 1.245C276.49 0.557405 275.933 0 275.245 0C274.557 0 274 0.557405 274 1.245C274 1.93259 274.557 2.49 275.245 2.49Z" fill="#FF6446"></path><path d="M108.245 2.49C108.933 2.49 109.49 1.93259 109.49 1.245C109.49 0.557405 108.933 0 108.245 0C107.557 0 107 0.557405 107 1.245C107 1.93259 107.557 2.49 108.245 2.49Z" fill="#FF6446"></path><path d="M123.245 19.49C123.933 19.49 124.49 18.9326 124.49 18.245C124.49 17.5574 123.933 17 123.245 17C122.557 17 122 17.5574 122 18.245C122 18.9326 122.557 19.49 123.245 19.49Z" fill="#FF6446"></path><path d="M138.245 19.49C138.933 19.49 139.49 18.9326 139.49 18.245C139.49 17.5574 138.933 17 138.245 17C137.557 17 137 17.5574 137 18.245C137 18.9326 137.557 19.49 138.245 19.49Z" fill="#FF6446"></path><path d="M153.245 19.49C153.933 19.49 154.49 18.9326 154.49 18.245C154.49 17.5574 153.933 17 153.245 17C152.557 17 152 17.5574 152 18.245C152 18.9326 152.557 19.49 153.245 19.49Z" fill="#FF6446"></path><path d="M168.245 19.49C168.933 19.49 169.49 18.9326 169.49 18.245C169.49 17.5574 168.933 17 168.245 17C167.557 17 167 17.5574 167 18.245C167 18.9326 167.557 19.49 168.245 19.49Z" fill="#FF6446"></path><path d="M1.245 19.49C1.93259 19.49 2.49 18.9326 2.49 18.245C2.49 17.5574 1.93259 17 1.245 17C0.557405 17 0 17.5574 0 18.245C0 18.9326 0.557405 19.49 1.245 19.49Z" fill="#FF6446"></path><path d="M185.49 18.245C185.49 18.4912 185.417 18.7319 185.28 18.9367C185.143 19.1414 184.949 19.301 184.721 19.3952C184.494 19.4895 184.244 19.5141 184.002 19.4661C183.761 19.4181 183.539 19.2995 183.365 19.1254C183.191 18.9512 183.072 18.7294 183.024 18.4879C182.976 18.2464 183.001 17.996 183.095 17.7686C183.189 17.5411 183.349 17.3466 183.553 17.2098C183.758 17.073 183.999 17 184.245 17C184.575 17 184.892 17.1312 185.125 17.3647C185.359 17.5981 185.49 17.9148 185.49 18.245Z" fill="#FF6446"></path><path d="M17.49 18.245C17.49 18.4912 17.417 18.7319 17.2802 18.9367C17.1434 19.1414 16.9489 19.301 16.7214 19.3952C16.494 19.4895 16.2436 19.5141 16.0021 19.4661C15.7606 19.4181 15.5388 19.2995 15.3647 19.1254C15.1905 18.9512 15.072 18.7294 15.0239 18.4879C14.9759 18.2464 15.0005 17.996 15.0948 17.7686C15.189 17.5411 15.3486 17.3466 15.5533 17.2098C15.7581 17.073 15.9988 17 16.245 17C16.5752 17 16.8919 17.1312 17.1253 17.3647C17.3588 17.5981 17.49 17.9148 17.49 18.245Z" fill="#FF6446"></path><path d="M199.245 19.49C199.933 19.49 200.49 18.9326 200.49 18.245C200.49 17.5574 199.933 17 199.245 17C198.557 17 198 17.5574 198 18.245C198 18.9326 198.557 19.49 199.245 19.49Z" fill="#FF6446"></path><path d="M31.245 19.49C31.9326 19.49 32.49 18.9326 32.49 18.245C32.49 17.5574 31.9326 17 31.245 17C30.5574 17 30 17.5574 30 18.245C30 18.9326 30.5574 19.49 31.245 19.49Z" fill="#FF6446"></path><path d="M214.245 19.49C214.933 19.49 215.49 18.9326 215.49 18.245C215.49 17.5574 214.933 17 214.245 17C213.557 17 213 17.5574 213 18.245C213 18.9326 213.557 19.49 214.245 19.49Z" fill="#FF6446"></path><path d="M47.245 19.49C47.9326 19.49 48.49 18.9326 48.49 18.245C48.49 17.5574 47.9326 17 47.245 17C46.5574 17 46 17.5574 46 18.245C46 18.9326 46.5574 19.49 47.245 19.49Z" fill="#FF6446"></path><path d="M229.245 19.49C229.933 19.49 230.49 18.9326 230.49 18.245C230.49 17.5574 229.933 17 229.245 17C228.557 17 228 17.5574 228 18.245C228 18.9326 228.557 19.49 229.245 19.49Z" fill="#FF6446"></path><path d="M62.245 19.49C62.9326 19.49 63.49 18.9326 63.49 18.245C63.49 17.5574 62.9326 17 62.245 17C61.5574 17 61 17.5574 61 18.245C61 18.9326 61.5574 19.49 62.245 19.49Z" fill="#FF6446"></path><path d="M245.245 19.49C245.933 19.49 246.49 18.9326 246.49 18.245C246.49 17.5574 245.933 17 245.245 17C244.557 17 244 17.5574 244 18.245C244 18.9326 244.557 19.49 245.245 19.49Z" fill="#FF6446"></path><path d="M77.245 19.49C77.9326 19.49 78.49 18.9326 78.49 18.245C78.49 17.5574 77.9326 17 77.245 17C76.5574 17 76 17.5574 76 18.245C76 18.9326 76.5574 19.49 77.245 19.49Z" fill="#FF6446"></path><path d="M260.245 19.49C260.933 19.49 261.49 18.9326 261.49 18.245C261.49 17.5574 260.933 17 260.245 17C259.557 17 259 17.5574 259 18.245C259 18.9326 259.557 19.49 260.245 19.49Z" fill="#FF6446"></path><path d="M92.245 19.49C92.9326 19.49 93.49 18.9326 93.49 18.245C93.49 17.5574 92.9326 17 92.245 17C91.5574 17 91 17.5574 91 18.245C91 18.9326 91.5574 19.49 92.245 19.49Z" fill="#FF6446"></path><path d="M275.245 19.49C275.933 19.49 276.49 18.9326 276.49 18.245C276.49 17.5574 275.933 17 275.245 17C274.557 17 274 17.5574 274 18.245C274 18.9326 274.557 19.49 275.245 19.49Z" fill="#FF6446"></path><path d="M108.245 19.49C108.933 19.49 109.49 18.9326 109.49 18.245C109.49 17.5574 108.933 17 108.245 17C107.557 17 107 17.5574 107 18.245C107 18.9326 107.557 19.49 108.245 19.49Z" fill="#FF6446"></path><path d="M123.245 36.49C123.933 36.49 124.49 35.9326 124.49 35.245C124.49 34.5574 123.933 34 123.245 34C122.557 34 122 34.5574 122 35.245C122 35.9326 122.557 36.49 123.245 36.49Z" fill="#FF6446"></path><path d="M138.245 36.49C138.933 36.49 139.49 35.9326 139.49 35.245C139.49 34.5574 138.933 34 138.245 34C137.557 34 137 34.5574 137 35.245C137 35.9326 137.557 36.49 138.245 36.49Z" fill="#FF6446"></path><path d="M153.245 36.49C153.933 36.49 154.49 35.9326 154.49 35.245C154.49 34.5574 153.933 34 153.245 34C152.557 34 152 34.5574 152 35.245C152 35.9326 152.557 36.49 153.245 36.49Z" fill="#FF6446"></path><path d="M168.245 36.49C168.933 36.49 169.49 35.9326 169.49 35.245C169.49 34.5574 168.933 34 168.245 34C167.557 34 167 34.5574 167 35.245C167 35.9326 167.557 36.49 168.245 36.49Z" fill="#FF6446"></path><path d="M1.245 36.49C1.93259 36.49 2.49 35.9326 2.49 35.245C2.49 34.5574 1.93259 34 1.245 34C0.557405 34 0 34.5574 0 35.245C0 35.9326 0.557405 36.49 1.245 36.49Z" fill="#FF6446"></path><path d="M185.49 35.245C185.49 35.4912 185.417 35.7319 185.28 35.9367C185.143 36.1414 184.949 36.301 184.721 36.3952C184.494 36.4895 184.244 36.5141 184.002 36.4661C183.761 36.4181 183.539 36.2995 183.365 36.1254C183.191 35.9512 183.072 35.7294 183.024 35.4879C182.976 35.2464 183.001 34.996 183.095 34.7686C183.189 34.5411 183.349 34.3466 183.553 34.2098C183.758 34.073 183.999 34 184.245 34C184.575 34 184.892 34.1312 185.125 34.3647C185.359 34.5981 185.49 34.9148 185.49 35.245Z" fill="#FF6446"></path><path d="M17.49 35.245C17.49 35.4912 17.417 35.7319 17.2802 35.9367C17.1434 36.1414 16.9489 36.301 16.7214 36.3952C16.494 36.4895 16.2436 36.5141 16.0021 36.4661C15.7606 36.4181 15.5388 36.2995 15.3647 36.1254C15.1905 35.9512 15.072 35.7294 15.0239 35.4879C14.9759 35.2464 15.0005 34.996 15.0948 34.7686C15.189 34.5411 15.3486 34.3466 15.5533 34.2098C15.7581 34.073 15.9988 34 16.245 34C16.5752 34 16.8919 34.1312 17.1253 34.3647C17.3588 34.5981 17.49 34.9148 17.49 35.245Z" fill="#FF6446"></path><path d="M199.245 36.49C199.933 36.49 200.49 35.9326 200.49 35.245C200.49 34.5574 199.933 34 199.245 34C198.557 34 198 34.5574 198 35.245C198 35.9326 198.557 36.49 199.245 36.49Z" fill="#FF6446"></path><path d="M31.245 36.49C31.9326 36.49 32.49 35.9326 32.49 35.245C32.49 34.5574 31.9326 34 31.245 34C30.5574 34 30 34.5574 30 35.245C30 35.9326 30.5574 36.49 31.245 36.49Z" fill="#FF6446"></path><path d="M214.245 36.49C214.933 36.49 215.49 35.9326 215.49 35.245C215.49 34.5574 214.933 34 214.245 34C213.557 34 213 34.5574 213 35.245C213 35.9326 213.557 36.49 214.245 36.49Z" fill="#FF6446"></path><path d="M47.245 36.49C47.9326 36.49 48.49 35.9326 48.49 35.245C48.49 34.5574 47.9326 34 47.245 34C46.5574 34 46 34.5574 46 35.245C46 35.9326 46.5574 36.49 47.245 36.49Z" fill="#FF6446"></path><path d="M229.245 36.49C229.933 36.49 230.49 35.9326 230.49 35.245C230.49 34.5574 229.933 34 229.245 34C228.557 34 228 34.5574 228 35.245C228 35.9326 228.557 36.49 229.245 36.49Z" fill="#FF6446"></path><path d="M62.245 36.49C62.9326 36.49 63.49 35.9326 63.49 35.245C63.49 34.5574 62.9326 34 62.245 34C61.5574 34 61 34.5574 61 35.245C61 35.9326 61.5574 36.49 62.245 36.49Z" fill="#FF6446"></path><path d="M245.245 36.49C245.933 36.49 246.49 35.9326 246.49 35.245C246.49 34.5574 245.933 34 245.245 34C244.557 34 244 34.5574 244 35.245C244 35.9326 244.557 36.49 245.245 36.49Z" fill="#FF6446"></path><path d="M77.245 36.49C77.9326 36.49 78.49 35.9326 78.49 35.245C78.49 34.5574 77.9326 34 77.245 34C76.5574 34 76 34.5574 76 35.245C76 35.9326 76.5574 36.49 77.245 36.49Z" fill="#FF6446"></path><path d="M260.245 36.49C260.933 36.49 261.49 35.9326 261.49 35.245C261.49 34.5574 260.933 34 260.245 34C259.557 34 259 34.5574 259 35.245C259 35.9326 259.557 36.49 260.245 36.49Z" fill="#FF6446"></path><path d="M92.245 36.49C92.9326 36.49 93.49 35.9326 93.49 35.245C93.49 34.5574 92.9326 34 92.245 34C91.5574 34 91 34.5574 91 35.245C91 35.9326 91.5574 36.49 92.245 36.49Z" fill="#FF6446"></path><path d="M275.245 36.49C275.933 36.49 276.49 35.9326 276.49 35.245C276.49 34.5574 275.933 34 275.245 34C274.557 34 274 34.5574 274 35.245C274 35.9326 274.557 36.49 275.245 36.49Z" fill="#FF6446"></path><path d="M108.245 36.49C108.933 36.49 109.49 35.9326 109.49 35.245C109.49 34.5574 108.933 34 108.245 34C107.557 34 107 34.5574 107 35.245C107 35.9326 107.557 36.49 108.245 36.49Z" fill="#FF6446"></path><path d="M123.245 53.49C123.933 53.49 124.49 52.9326 124.49 52.245C124.49 51.5574 123.933 51 123.245 51C122.557 51 122 51.5574 122 52.245C122 52.9326 122.557 53.49 123.245 53.49Z" fill="#FF6446"></path><path d="M138.245 53.49C138.933 53.49 139.49 52.9326 139.49 52.245C139.49 51.5574 138.933 51 138.245 51C137.557 51 137 51.5574 137 52.245C137 52.9326 137.557 53.49 138.245 53.49Z" fill="#FF6446"></path><path d="M153.245 53.49C153.933 53.49 154.49 52.9326 154.49 52.245C154.49 51.5574 153.933 51 153.245 51C152.557 51 152 51.5574 152 52.245C152 52.9326 152.557 53.49 153.245 53.49Z" fill="#FF6446"></path><path d="M168.245 53.49C168.933 53.49 169.49 52.9326 169.49 52.245C169.49 51.5574 168.933 51 168.245 51C167.557 51 167 51.5574 167 52.245C167 52.9326 167.557 53.49 168.245 53.49Z" fill="#FF6446"></path><path d="M1.245 53.49C1.93259 53.49 2.49 52.9326 2.49 52.245C2.49 51.5574 1.93259 51 1.245 51C0.557405 51 0 51.5574 0 52.245C0 52.9326 0.557405 53.49 1.245 53.49Z" fill="#FF6446"></path><path d="M185.49 52.245C185.49 52.4912 185.417 52.7319 185.28 52.9367C185.143 53.1414 184.949 53.301 184.721 53.3952C184.494 53.4895 184.244 53.5141 184.002 53.4661C183.761 53.4181 183.539 53.2995 183.365 53.1254C183.191 52.9512 183.072 52.7294 183.024 52.4879C182.976 52.2464 183.001 51.996 183.095 51.7686C183.189 51.5411 183.349 51.3466 183.553 51.2098C183.758 51.073 183.999 51 184.245 51C184.575 51 184.892 51.1312 185.125 51.3647C185.359 51.5981 185.49 51.9148 185.49 52.245Z" fill="#FF6446"></path><path d="M17.49 52.245C17.49 52.4912 17.417 52.7319 17.2802 52.9367C17.1434 53.1414 16.9489 53.301 16.7214 53.3952C16.494 53.4895 16.2436 53.5141 16.0021 53.4661C15.7606 53.4181 15.5388 53.2995 15.3647 53.1254C15.1905 52.9512 15.072 52.7294 15.0239 52.4879C14.9759 52.2464 15.0005 51.996 15.0948 51.7686C15.189 51.5411 15.3486 51.3466 15.5533 51.2098C15.7581 51.073 15.9988 51 16.245 51C16.5752 51 16.8919 51.1312 17.1253 51.3647C17.3588 51.5981 17.49 51.9148 17.49 52.245Z" fill="#FF6446"></path><path d="M199.245 53.49C199.933 53.49 200.49 52.9326 200.49 52.245C200.49 51.5574 199.933 51 199.245 51C198.557 51 198 51.5574 198 52.245C198 52.9326 198.557 53.49 199.245 53.49Z" fill="#FF6446"></path><path d="M31.245 53.49C31.9326 53.49 32.49 52.9326 32.49 52.245C32.49 51.5574 31.9326 51 31.245 51C30.5574 51 30 51.5574 30 52.245C30 52.9326 30.5574 53.49 31.245 53.49Z" fill="#FF6446"></path><path d="M214.245 53.49C214.933 53.49 215.49 52.9326 215.49 52.245C215.49 51.5574 214.933 51 214.245 51C213.557 51 213 51.5574 213 52.245C213 52.9326 213.557 53.49 214.245 53.49Z" fill="#FF6446"></path><path d="M47.245 53.49C47.9326 53.49 48.49 52.9326 48.49 52.245C48.49 51.5574 47.9326 51 47.245 51C46.5574 51 46 51.5574 46 52.245C46 52.9326 46.5574 53.49 47.245 53.49Z" fill="#FF6446"></path><path d="M229.245 53.49C229.933 53.49 230.49 52.9326 230.49 52.245C230.49 51.5574 229.933 51 229.245 51C228.557 51 228 51.5574 228 52.245C228 52.9326 228.557 53.49 229.245 53.49Z" fill="#FF6446"></path><path d="M62.245 53.49C62.9326 53.49 63.49 52.9326 63.49 52.245C63.49 51.5574 62.9326 51 62.245 51C61.5574 51 61 51.5574 61 52.245C61 52.9326 61.5574 53.49 62.245 53.49Z" fill="#FF6446"></path><path d="M245.245 53.49C245.933 53.49 246.49 52.9326 246.49 52.245C246.49 51.5574 245.933 51 245.245 51C244.557 51 244 51.5574 244 52.245C244 52.9326 244.557 53.49 245.245 53.49Z" fill="#FF6446"></path><path d="M77.245 53.49C77.9326 53.49 78.49 52.9326 78.49 52.245C78.49 51.5574 77.9326 51 77.245 51C76.5574 51 76 51.5574 76 52.245C76 52.9326 76.5574 53.49 77.245 53.49Z" fill="#FF6446"></path><path d="M260.245 53.49C260.933 53.49 261.49 52.9326 261.49 52.245C261.49 51.5574 260.933 51 260.245 51C259.557 51 259 51.5574 259 52.245C259 52.9326 259.557 53.49 260.245 53.49Z" fill="#FF6446"></path><path d="M92.245 53.49C92.9326 53.49 93.49 52.9326 93.49 52.245C93.49 51.5574 92.9326 51 92.245 51C91.5574 51 91 51.5574 91 52.245C91 52.9326 91.5574 53.49 92.245 53.49Z" fill="#FF6446"></path><path d="M275.245 53.49C275.933 53.49 276.49 52.9326 276.49 52.245C276.49 51.5574 275.933 51 275.245 51C274.557 51 274 51.5574 274 52.245C274 52.9326 274.557 53.49 275.245 53.49Z" fill="#FF6446"></path><path d="M108.245 53.49C108.933 53.49 109.49 52.9326 109.49 52.245C109.49 51.5574 108.933 51 108.245 51C107.557 51 107 51.5574 107 52.245C107 52.9326 107.557 53.49 108.245 53.49Z" fill="#FF6446"></path><path d="M123.245 70.49C123.933 70.49 124.49 69.9326 124.49 69.245C124.49 68.5574 123.933 68 123.245 68C122.557 68 122 68.5574 122 69.245C122 69.9326 122.557 70.49 123.245 70.49Z" fill="#FF6446"></path><path d="M138.245 70.49C138.933 70.49 139.49 69.9326 139.49 69.245C139.49 68.5574 138.933 68 138.245 68C137.557 68 137 68.5574 137 69.245C137 69.9326 137.557 70.49 138.245 70.49Z" fill="#FF6446"></path><path d="M153.245 70.49C153.933 70.49 154.49 69.9326 154.49 69.245C154.49 68.5574 153.933 68 153.245 68C152.557 68 152 68.5574 152 69.245C152 69.9326 152.557 70.49 153.245 70.49Z" fill="#FF6446"></path><path d="M168.245 70.49C168.933 70.49 169.49 69.9326 169.49 69.245C169.49 68.5574 168.933 68 168.245 68C167.557 68 167 68.5574 167 69.245C167 69.9326 167.557 70.49 168.245 70.49Z" fill="#FF6446"></path><path d="M1.245 70.49C1.93259 70.49 2.49 69.9326 2.49 69.245C2.49 68.5574 1.93259 68 1.245 68C0.557405 68 0 68.5574 0 69.245C0 69.9326 0.557405 70.49 1.245 70.49Z" fill="#FF6446"></path><path d="M185.49 69.245C185.49 69.4912 185.417 69.7319 185.28 69.9367C185.143 70.1414 184.949 70.301 184.721 70.3952C184.494 70.4895 184.244 70.5141 184.002 70.4661C183.761 70.4181 183.539 70.2995 183.365 70.1254C183.191 69.9512 183.072 69.7294 183.024 69.4879C182.976 69.2464 183.001 68.996 183.095 68.7686C183.189 68.5411 183.349 68.3466 183.553 68.2098C183.758 68.073 183.999 68 184.245 68C184.575 68 184.892 68.1312 185.125 68.3647C185.359 68.5981 185.49 68.9148 185.49 69.245Z" fill="#FF6446"></path><path d="M17.49 69.245C17.49 69.4912 17.417 69.7319 17.2802 69.9367C17.1434 70.1414 16.9489 70.301 16.7214 70.3952C16.494 70.4895 16.2436 70.5141 16.0021 70.4661C15.7606 70.4181 15.5388 70.2995 15.3647 70.1254C15.1905 69.9512 15.072 69.7294 15.0239 69.4879C14.9759 69.2464 15.0005 68.996 15.0948 68.7686C15.189 68.5411 15.3486 68.3466 15.5533 68.2098C15.7581 68.073 15.9988 68 16.245 68C16.5752 68 16.8919 68.1312 17.1253 68.3647C17.3588 68.5981 17.49 68.9148 17.49 69.245Z" fill="#FF6446"></path><path d="M199.245 70.49C199.933 70.49 200.49 69.9326 200.49 69.245C200.49 68.5574 199.933 68 199.245 68C198.557 68 198 68.5574 198 69.245C198 69.9326 198.557 70.49 199.245 70.49Z" fill="#FF6446"></path><path d="M31.245 70.49C31.9326 70.49 32.49 69.9326 32.49 69.245C32.49 68.5574 31.9326 68 31.245 68C30.5574 68 30 68.5574 30 69.245C30 69.9326 30.5574 70.49 31.245 70.49Z" fill="#FF6446"></path><path d="M214.245 70.49C214.933 70.49 215.49 69.9326 215.49 69.245C215.49 68.5574 214.933 68 214.245 68C213.557 68 213 68.5574 213 69.245C213 69.9326 213.557 70.49 214.245 70.49Z" fill="#FF6446"></path><path d="M47.245 70.49C47.9326 70.49 48.49 69.9326 48.49 69.245C48.49 68.5574 47.9326 68 47.245 68C46.5574 68 46 68.5574 46 69.245C46 69.9326 46.5574 70.49 47.245 70.49Z" fill="#FF6446"></path><path d="M229.245 70.49C229.933 70.49 230.49 69.9326 230.49 69.245C230.49 68.5574 229.933 68 229.245 68C228.557 68 228 68.5574 228 69.245C228 69.9326 228.557 70.49 229.245 70.49Z" fill="#FF6446"></path><path d="M62.245 70.49C62.9326 70.49 63.49 69.9326 63.49 69.245C63.49 68.5574 62.9326 68 62.245 68C61.5574 68 61 68.5574 61 69.245C61 69.9326 61.5574 70.49 62.245 70.49Z" fill="#FF6446"></path><path d="M245.245 70.49C245.933 70.49 246.49 69.9326 246.49 69.245C246.49 68.5574 245.933 68 245.245 68C244.557 68 244 68.5574 244 69.245C244 69.9326 244.557 70.49 245.245 70.49Z" fill="#FF6446"></path><path d="M77.245 70.49C77.9326 70.49 78.49 69.9326 78.49 69.245C78.49 68.5574 77.9326 68 77.245 68C76.5574 68 76 68.5574 76 69.245C76 69.9326 76.5574 70.49 77.245 70.49Z" fill="#FF6446"></path><path d="M260.245 70.49C260.933 70.49 261.49 69.9326 261.49 69.245C261.49 68.5574 260.933 68 260.245 68C259.557 68 259 68.5574 259 69.245C259 69.9326 259.557 70.49 260.245 70.49Z" fill="#FF6446"></path><path d="M92.245 70.49C92.9326 70.49 93.49 69.9326 93.49 69.245C93.49 68.5574 92.9326 68 92.245 68C91.5574 68 91 68.5574 91 69.245C91 69.9326 91.5574 70.49 92.245 70.49Z" fill="#FF6446"></path><path d="M275.245 70.49C275.933 70.49 276.49 69.9326 276.49 69.245C276.49 68.5574 275.933 68 275.245 68C274.557 68 274 68.5574 274 69.245C274 69.9326 274.557 70.49 275.245 70.49Z" fill="#FF6446"></path><path d="M108.245 70.49C108.933 70.49 109.49 69.9326 109.49 69.245C109.49 68.5574 108.933 68 108.245 68C107.557 68 107 68.5574 107 69.245C107 69.9326 107.557 70.49 108.245 70.49Z" fill="#FF6446"></path><path d="M123.245 87.49C123.933 87.49 124.49 86.9326 124.49 86.245C124.49 85.5574 123.933 85 123.245 85C122.557 85 122 85.5574 122 86.245C122 86.9326 122.557 87.49 123.245 87.49Z" fill="#FF6446"></path><path d="M138.245 87.49C138.933 87.49 139.49 86.9326 139.49 86.245C139.49 85.5574 138.933 85 138.245 85C137.557 85 137 85.5574 137 86.245C137 86.9326 137.557 87.49 138.245 87.49Z" fill="#FF6446"></path><path d="M153.245 87.49C153.933 87.49 154.49 86.9326 154.49 86.245C154.49 85.5574 153.933 85 153.245 85C152.557 85 152 85.5574 152 86.245C152 86.9326 152.557 87.49 153.245 87.49Z" fill="#FF6446"></path><path d="M168.245 87.49C168.933 87.49 169.49 86.9326 169.49 86.245C169.49 85.5574 168.933 85 168.245 85C167.557 85 167 85.5574 167 86.245C167 86.9326 167.557 87.49 168.245 87.49Z" fill="#FF6446"></path><path d="M1.245 87.49C1.93259 87.49 2.49 86.9326 2.49 86.245C2.49 85.5574 1.93259 85 1.245 85C0.557405 85 0 85.5574 0 86.245C0 86.9326 0.557405 87.49 1.245 87.49Z" fill="#FF6446"></path><path d="M185.49 86.245C185.49 86.4912 185.417 86.7319 185.28 86.9367C185.143 87.1414 184.949 87.301 184.721 87.3952C184.494 87.4895 184.244 87.5141 184.002 87.4661C183.761 87.4181 183.539 87.2995 183.365 87.1254C183.191 86.9512 183.072 86.7294 183.024 86.4879C182.976 86.2464 183.001 85.996 183.095 85.7686C183.189 85.5411 183.349 85.3466 183.553 85.2098C183.758 85.073 183.999 85 184.245 85C184.575 85 184.892 85.1312 185.125 85.3647C185.359 85.5981 185.49 85.9148 185.49 86.245Z" fill="#FF6446"></path><path d="M17.49 86.245C17.49 86.4912 17.417 86.7319 17.2802 86.9367C17.1434 87.1414 16.9489 87.301 16.7214 87.3952C16.494 87.4895 16.2436 87.5141 16.0021 87.4661C15.7606 87.4181 15.5388 87.2995 15.3647 87.1254C15.1905 86.9512 15.072 86.7294 15.0239 86.4879C14.9759 86.2464 15.0005 85.996 15.0948 85.7686C15.189 85.5411 15.3486 85.3466 15.5533 85.2098C15.7581 85.073 15.9988 85 16.245 85C16.5752 85 16.8919 85.1312 17.1253 85.3647C17.3588 85.5981 17.49 85.9148 17.49 86.245Z" fill="#FF6446"></path><path d="M199.245 87.49C199.933 87.49 200.49 86.9326 200.49 86.245C200.49 85.5574 199.933 85 199.245 85C198.557 85 198 85.5574 198 86.245C198 86.9326 198.557 87.49 199.245 87.49Z" fill="#FF6446"></path><path d="M31.245 87.49C31.9326 87.49 32.49 86.9326 32.49 86.245C32.49 85.5574 31.9326 85 31.245 85C30.5574 85 30 85.5574 30 86.245C30 86.9326 30.5574 87.49 31.245 87.49Z" fill="#FF6446"></path><path d="M214.245 87.49C214.933 87.49 215.49 86.9326 215.49 86.245C215.49 85.5574 214.933 85 214.245 85C213.557 85 213 85.5574 213 86.245C213 86.9326 213.557 87.49 214.245 87.49Z" fill="#FF6446"></path><path d="M47.245 87.49C47.9326 87.49 48.49 86.9326 48.49 86.245C48.49 85.5574 47.9326 85 47.245 85C46.5574 85 46 85.5574 46 86.245C46 86.9326 46.5574 87.49 47.245 87.49Z" fill="#FF6446"></path><path d="M229.245 87.49C229.933 87.49 230.49 86.9326 230.49 86.245C230.49 85.5574 229.933 85 229.245 85C228.557 85 228 85.5574 228 86.245C228 86.9326 228.557 87.49 229.245 87.49Z" fill="#FF6446"></path><path d="M62.245 87.49C62.9326 87.49 63.49 86.9326 63.49 86.245C63.49 85.5574 62.9326 85 62.245 85C61.5574 85 61 85.5574 61 86.245C61 86.9326 61.5574 87.49 62.245 87.49Z" fill="#FF6446"></path><path d="M245.245 87.49C245.933 87.49 246.49 86.9326 246.49 86.245C246.49 85.5574 245.933 85 245.245 85C244.557 85 244 85.5574 244 86.245C244 86.9326 244.557 87.49 245.245 87.49Z" fill="#FF6446"></path><path d="M77.245 87.49C77.9326 87.49 78.49 86.9326 78.49 86.245C78.49 85.5574 77.9326 85 77.245 85C76.5574 85 76 85.5574 76 86.245C76 86.9326 76.5574 87.49 77.245 87.49Z" fill="#FF6446"></path><path d="M260.245 87.49C260.933 87.49 261.49 86.9326 261.49 86.245C261.49 85.5574 260.933 85 260.245 85C259.557 85 259 85.5574 259 86.245C259 86.9326 259.557 87.49 260.245 87.49Z" fill="#FF6446"></path><path d="M92.245 87.49C92.9326 87.49 93.49 86.9326 93.49 86.245C93.49 85.5574 92.9326 85 92.245 85C91.5574 85 91 85.5574 91 86.245C91 86.9326 91.5574 87.49 92.245 87.49Z" fill="#FF6446"></path><path d="M275.245 87.49C275.933 87.49 276.49 86.9326 276.49 86.245C276.49 85.5574 275.933 85 275.245 85C274.557 85 274 85.5574 274 86.245C274 86.9326 274.557 87.49 275.245 87.49Z" fill="#FF6446"></path><path d="M108.245 87.49C108.933 87.49 109.49 86.9326 109.49 86.245C109.49 85.5574 108.933 85 108.245 85C107.557 85 107 85.5574 107 86.245C107 86.9326 107.557 87.49 108.245 87.49Z" fill="#FF6446"></path><path d="M123.245 104.49C123.933 104.49 124.49 103.933 124.49 103.245C124.49 102.557 123.933 102 123.245 102C122.557 102 122 102.557 122 103.245C122 103.933 122.557 104.49 123.245 104.49Z" fill="#FF6446"></path><path d="M138.245 104.49C138.933 104.49 139.49 103.933 139.49 103.245C139.49 102.557 138.933 102 138.245 102C137.557 102 137 102.557 137 103.245C137 103.933 137.557 104.49 138.245 104.49Z" fill="#FF6446"></path><path d="M153.245 104.49C153.933 104.49 154.49 103.933 154.49 103.245C154.49 102.557 153.933 102 153.245 102C152.557 102 152 102.557 152 103.245C152 103.933 152.557 104.49 153.245 104.49Z" fill="#FF6446"></path><path d="M168.245 104.49C168.933 104.49 169.49 103.933 169.49 103.245C169.49 102.557 168.933 102 168.245 102C167.557 102 167 102.557 167 103.245C167 103.933 167.557 104.49 168.245 104.49Z" fill="#FF6446"></path><path d="M1.245 104.49C1.93259 104.49 2.49 103.933 2.49 103.245C2.49 102.557 1.93259 102 1.245 102C0.557405 102 0 102.557 0 103.245C0 103.933 0.557405 104.49 1.245 104.49Z" fill="#FF6446"></path><path d="M185.49 103.245C185.49 103.491 185.417 103.732 185.28 103.937C185.143 104.141 184.949 104.301 184.721 104.395C184.494 104.489 184.244 104.514 184.002 104.466C183.761 104.418 183.539 104.299 183.365 104.125C183.191 103.951 183.072 103.729 183.024 103.488C182.976 103.246 183.001 102.996 183.095 102.769C183.189 102.541 183.349 102.347 183.553 102.21C183.758 102.073 183.999 102 184.245 102C184.575 102 184.892 102.131 185.125 102.365C185.359 102.598 185.49 102.915 185.49 103.245Z" fill="#FF6446"></path><path d="M17.49 103.245C17.49 103.491 17.417 103.732 17.2802 103.937C17.1434 104.141 16.9489 104.301 16.7214 104.395C16.494 104.489 16.2436 104.514 16.0021 104.466C15.7606 104.418 15.5388 104.299 15.3647 104.125C15.1905 103.951 15.072 103.729 15.0239 103.488C14.9759 103.246 15.0005 102.996 15.0948 102.769C15.189 102.541 15.3486 102.347 15.5533 102.21C15.7581 102.073 15.9988 102 16.245 102C16.5752 102 16.8919 102.131 17.1253 102.365C17.3588 102.598 17.49 102.915 17.49 103.245Z" fill="#FF6446"></path><path d="M199.245 104.49C199.933 104.49 200.49 103.933 200.49 103.245C200.49 102.557 199.933 102 199.245 102C198.557 102 198 102.557 198 103.245C198 103.933 198.557 104.49 199.245 104.49Z" fill="#FF6446"></path><path d="M31.245 104.49C31.9326 104.49 32.49 103.933 32.49 103.245C32.49 102.557 31.9326 102 31.245 102C30.5574 102 30 102.557 30 103.245C30 103.933 30.5574 104.49 31.245 104.49Z" fill="#FF6446"></path><path d="M214.245 104.49C214.933 104.49 215.49 103.933 215.49 103.245C215.49 102.557 214.933 102 214.245 102C213.557 102 213 102.557 213 103.245C213 103.933 213.557 104.49 214.245 104.49Z" fill="#FF6446"></path><path d="M47.245 104.49C47.9326 104.49 48.49 103.933 48.49 103.245C48.49 102.557 47.9326 102 47.245 102C46.5574 102 46 102.557 46 103.245C46 103.933 46.5574 104.49 47.245 104.49Z" fill="#FF6446"></path><path d="M229.245 104.49C229.933 104.49 230.49 103.933 230.49 103.245C230.49 102.557 229.933 102 229.245 102C228.557 102 228 102.557 228 103.245C228 103.933 228.557 104.49 229.245 104.49Z" fill="#FF6446"></path><path d="M62.245 104.49C62.9326 104.49 63.49 103.933 63.49 103.245C63.49 102.557 62.9326 102 62.245 102C61.5574 102 61 102.557 61 103.245C61 103.933 61.5574 104.49 62.245 104.49Z" fill="#FF6446"></path><path d="M245.245 104.49C245.933 104.49 246.49 103.933 246.49 103.245C246.49 102.557 245.933 102 245.245 102C244.557 102 244 102.557 244 103.245C244 103.933 244.557 104.49 245.245 104.49Z" fill="#FF6446"></path><path d="M77.245 104.49C77.9326 104.49 78.49 103.933 78.49 103.245C78.49 102.557 77.9326 102 77.245 102C76.5574 102 76 102.557 76 103.245C76 103.933 76.5574 104.49 77.245 104.49Z" fill="#FF6446"></path><path d="M260.245 104.49C260.933 104.49 261.49 103.933 261.49 103.245C261.49 102.557 260.933 102 260.245 102C259.557 102 259 102.557 259 103.245C259 103.933 259.557 104.49 260.245 104.49Z" fill="#FF6446"></path><path d="M92.245 104.49C92.9326 104.49 93.49 103.933 93.49 103.245C93.49 102.557 92.9326 102 92.245 102C91.5574 102 91 102.557 91 103.245C91 103.933 91.5574 104.49 92.245 104.49Z" fill="#FF6446"></path><path d="M275.245 104.49C275.933 104.49 276.49 103.933 276.49 103.245C276.49 102.557 275.933 102 275.245 102C274.557 102 274 102.557 274 103.245C274 103.933 274.557 104.49 275.245 104.49Z" fill="#FF6446"></path><path d="M108.245 104.49C108.933 104.49 109.49 103.933 109.49 103.245C109.49 102.557 108.933 102 108.245 102C107.557 102 107 102.557 107 103.245C107 103.933 107.557 104.49 108.245 104.49Z" fill="#FF6446"></path><path d="M123.245 121.49C123.933 121.49 124.49 120.933 124.49 120.245C124.49 119.557 123.933 119 123.245 119C122.557 119 122 119.557 122 120.245C122 120.933 122.557 121.49 123.245 121.49Z" fill="#FF6446"></path><path d="M138.245 121.49C138.933 121.49 139.49 120.933 139.49 120.245C139.49 119.557 138.933 119 138.245 119C137.557 119 137 119.557 137 120.245C137 120.933 137.557 121.49 138.245 121.49Z" fill="#FF6446"></path><path d="M153.245 121.49C153.933 121.49 154.49 120.933 154.49 120.245C154.49 119.557 153.933 119 153.245 119C152.557 119 152 119.557 152 120.245C152 120.933 152.557 121.49 153.245 121.49Z" fill="#FF6446"></path><path d="M168.245 121.49C168.933 121.49 169.49 120.933 169.49 120.245C169.49 119.557 168.933 119 168.245 119C167.557 119 167 119.557 167 120.245C167 120.933 167.557 121.49 168.245 121.49Z" fill="#FF6446"></path><path d="M1.245 121.49C1.93259 121.49 2.49 120.933 2.49 120.245C2.49 119.557 1.93259 119 1.245 119C0.557405 119 0 119.557 0 120.245C0 120.933 0.557405 121.49 1.245 121.49Z" fill="#FF6446"></path><path d="M185.49 120.245C185.49 120.491 185.417 120.732 185.28 120.937C185.143 121.141 184.949 121.301 184.721 121.395C184.494 121.489 184.244 121.514 184.002 121.466C183.761 121.418 183.539 121.299 183.365 121.125C183.191 120.951 183.072 120.729 183.024 120.488C182.976 120.246 183.001 119.996 183.095 119.769C183.189 119.541 183.349 119.347 183.553 119.21C183.758 119.073 183.999 119 184.245 119C184.575 119 184.892 119.131 185.125 119.365C185.359 119.598 185.49 119.915 185.49 120.245Z" fill="#FF6446"></path><path d="M17.49 120.245C17.49 120.491 17.417 120.732 17.2802 120.937C17.1434 121.141 16.9489 121.301 16.7214 121.395C16.494 121.489 16.2436 121.514 16.0021 121.466C15.7606 121.418 15.5388 121.299 15.3647 121.125C15.1905 120.951 15.072 120.729 15.0239 120.488C14.9759 120.246 15.0005 119.996 15.0948 119.769C15.189 119.541 15.3486 119.347 15.5533 119.21C15.7581 119.073 15.9988 119 16.245 119C16.5752 119 16.8919 119.131 17.1253 119.365C17.3588 119.598 17.49 119.915 17.49 120.245Z" fill="#FF6446"></path><path d="M199.245 121.49C199.933 121.49 200.49 120.933 200.49 120.245C200.49 119.557 199.933 119 199.245 119C198.557 119 198 119.557 198 120.245C198 120.933 198.557 121.49 199.245 121.49Z" fill="#FF6446"></path><path d="M31.245 121.49C31.9326 121.49 32.49 120.933 32.49 120.245C32.49 119.557 31.9326 119 31.245 119C30.5574 119 30 119.557 30 120.245C30 120.933 30.5574 121.49 31.245 121.49Z" fill="#FF6446"></path><path d="M214.245 121.49C214.933 121.49 215.49 120.933 215.49 120.245C215.49 119.557 214.933 119 214.245 119C213.557 119 213 119.557 213 120.245C213 120.933 213.557 121.49 214.245 121.49Z" fill="#FF6446"></path><path d="M47.245 121.49C47.9326 121.49 48.49 120.933 48.49 120.245C48.49 119.557 47.9326 119 47.245 119C46.5574 119 46 119.557 46 120.245C46 120.933 46.5574 121.49 47.245 121.49Z" fill="#FF6446"></path><path d="M229.245 121.49C229.933 121.49 230.49 120.933 230.49 120.245C230.49 119.557 229.933 119 229.245 119C228.557 119 228 119.557 228 120.245C228 120.933 228.557 121.49 229.245 121.49Z" fill="#FF6446"></path><path d="M62.245 121.49C62.9326 121.49 63.49 120.933 63.49 120.245C63.49 119.557 62.9326 119 62.245 119C61.5574 119 61 119.557 61 120.245C61 120.933 61.5574 121.49 62.245 121.49Z" fill="#FF6446"></path><path d="M245.245 121.49C245.933 121.49 246.49 120.933 246.49 120.245C246.49 119.557 245.933 119 245.245 119C244.557 119 244 119.557 244 120.245C244 120.933 244.557 121.49 245.245 121.49Z" fill="#FF6446"></path><path d="M77.245 121.49C77.9326 121.49 78.49 120.933 78.49 120.245C78.49 119.557 77.9326 119 77.245 119C76.5574 119 76 119.557 76 120.245C76 120.933 76.5574 121.49 77.245 121.49Z" fill="#FF6446"></path><path d="M260.245 121.49C260.933 121.49 261.49 120.933 261.49 120.245C261.49 119.557 260.933 119 260.245 119C259.557 119 259 119.557 259 120.245C259 120.933 259.557 121.49 260.245 121.49Z" fill="#FF6446"></path><path d="M92.245 121.49C92.9326 121.49 93.49 120.933 93.49 120.245C93.49 119.557 92.9326 119 92.245 119C91.5574 119 91 119.557 91 120.245C91 120.933 91.5574 121.49 92.245 121.49Z" fill="#FF6446"></path><path d="M275.245 121.49C275.933 121.49 276.49 120.933 276.49 120.245C276.49 119.557 275.933 119 275.245 119C274.557 119 274 119.557 274 120.245C274 120.933 274.557 121.49 275.245 121.49Z" fill="#FF6446"></path><path d="M108.245 121.49C108.933 121.49 109.49 120.933 109.49 120.245C109.49 119.557 108.933 119 108.245 119C107.557 119 107 119.557 107 120.245C107 120.933 107.557 121.49 108.245 121.49Z" fill="#FF6446"></path><path d="M123.245 138.49C123.933 138.49 124.49 137.933 124.49 137.245C124.49 136.557 123.933 136 123.245 136C122.557 136 122 136.557 122 137.245C122 137.933 122.557 138.49 123.245 138.49Z" fill="#FF6446"></path><path d="M138.245 138.49C138.933 138.49 139.49 137.933 139.49 137.245C139.49 136.557 138.933 136 138.245 136C137.557 136 137 136.557 137 137.245C137 137.933 137.557 138.49 138.245 138.49Z" fill="#FF6446"></path><path d="M153.245 138.49C153.933 138.49 154.49 137.933 154.49 137.245C154.49 136.557 153.933 136 153.245 136C152.557 136 152 136.557 152 137.245C152 137.933 152.557 138.49 153.245 138.49Z" fill="#FF6446"></path><path d="M168.245 138.49C168.933 138.49 169.49 137.933 169.49 137.245C169.49 136.557 168.933 136 168.245 136C167.557 136 167 136.557 167 137.245C167 137.933 167.557 138.49 168.245 138.49Z" fill="#FF6446"></path><path d="M1.245 138.49C1.93259 138.49 2.49 137.933 2.49 137.245C2.49 136.557 1.93259 136 1.245 136C0.557405 136 0 136.557 0 137.245C0 137.933 0.557405 138.49 1.245 138.49Z" fill="#FF6446"></path><path d="M185.49 137.245C185.49 137.491 185.417 137.732 185.28 137.937C185.143 138.141 184.949 138.301 184.721 138.395C184.494 138.489 184.244 138.514 184.002 138.466C183.761 138.418 183.539 138.299 183.365 138.125C183.191 137.951 183.072 137.729 183.024 137.488C182.976 137.246 183.001 136.996 183.095 136.769C183.189 136.541 183.349 136.347 183.553 136.21C183.758 136.073 183.999 136 184.245 136C184.575 136 184.892 136.131 185.125 136.365C185.359 136.598 185.49 136.915 185.49 137.245Z" fill="#FF6446"></path><path d="M17.49 137.245C17.49 137.491 17.417 137.732 17.2802 137.937C17.1434 138.141 16.9489 138.301 16.7214 138.395C16.494 138.489 16.2436 138.514 16.0021 138.466C15.7606 138.418 15.5388 138.299 15.3647 138.125C15.1905 137.951 15.072 137.729 15.0239 137.488C14.9759 137.246 15.0005 136.996 15.0948 136.769C15.189 136.541 15.3486 136.347 15.5533 136.21C15.7581 136.073 15.9988 136 16.245 136C16.5752 136 16.8919 136.131 17.1253 136.365C17.3588 136.598 17.49 136.915 17.49 137.245Z" fill="#FF6446"></path><path d="M199.245 138.49C199.933 138.49 200.49 137.933 200.49 137.245C200.49 136.557 199.933 136 199.245 136C198.557 136 198 136.557 198 137.245C198 137.933 198.557 138.49 199.245 138.49Z" fill="#FF6446"></path><path d="M31.245 138.49C31.9326 138.49 32.49 137.933 32.49 137.245C32.49 136.557 31.9326 136 31.245 136C30.5574 136 30 136.557 30 137.245C30 137.933 30.5574 138.49 31.245 138.49Z" fill="#FF6446"></path><path d="M214.245 138.49C214.933 138.49 215.49 137.933 215.49 137.245C215.49 136.557 214.933 136 214.245 136C213.557 136 213 136.557 213 137.245C213 137.933 213.557 138.49 214.245 138.49Z" fill="#FF6446"></path><path d="M47.245 138.49C47.9326 138.49 48.49 137.933 48.49 137.245C48.49 136.557 47.9326 136 47.245 136C46.5574 136 46 136.557 46 137.245C46 137.933 46.5574 138.49 47.245 138.49Z" fill="#FF6446"></path><path d="M229.245 138.49C229.933 138.49 230.49 137.933 230.49 137.245C230.49 136.557 229.933 136 229.245 136C228.557 136 228 136.557 228 137.245C228 137.933 228.557 138.49 229.245 138.49Z" fill="#FF6446"></path><path d="M62.245 138.49C62.9326 138.49 63.49 137.933 63.49 137.245C63.49 136.557 62.9326 136 62.245 136C61.5574 136 61 136.557 61 137.245C61 137.933 61.5574 138.49 62.245 138.49Z" fill="#FF6446"></path><path d="M245.245 138.49C245.933 138.49 246.49 137.933 246.49 137.245C246.49 136.557 245.933 136 245.245 136C244.557 136 244 136.557 244 137.245C244 137.933 244.557 138.49 245.245 138.49Z" fill="#FF6446"></path><path d="M77.245 138.49C77.9326 138.49 78.49 137.933 78.49 137.245C78.49 136.557 77.9326 136 77.245 136C76.5574 136 76 136.557 76 137.245C76 137.933 76.5574 138.49 77.245 138.49Z" fill="#FF6446"></path><path d="M260.245 138.49C260.933 138.49 261.49 137.933 261.49 137.245C261.49 136.557 260.933 136 260.245 136C259.557 136 259 136.557 259 137.245C259 137.933 259.557 138.49 260.245 138.49Z" fill="#FF6446"></path><path d="M92.245 138.49C92.9326 138.49 93.49 137.933 93.49 137.245C93.49 136.557 92.9326 136 92.245 136C91.5574 136 91 136.557 91 137.245C91 137.933 91.5574 138.49 92.245 138.49Z" fill="#FF6446"></path><path d="M275.245 138.49C275.933 138.49 276.49 137.933 276.49 137.245C276.49 136.557 275.933 136 275.245 136C274.557 136 274 136.557 274 137.245C274 137.933 274.557 138.49 275.245 138.49Z" fill="#FF6446"></path><path d="M108.245 138.49C108.933 138.49 109.49 137.933 109.49 137.245C109.49 136.557 108.933 136 108.245 136C107.557 136 107 136.557 107 137.245C107 137.933 107.557 138.49 108.245 138.49Z" fill="#FF6446"></path><path d="M123.245 155.49C123.933 155.49 124.49 154.933 124.49 154.245C124.49 153.557 123.933 153 123.245 153C122.557 153 122 153.557 122 154.245C122 154.933 122.557 155.49 123.245 155.49Z" fill="#FF6446"></path><path d="M138.245 155.49C138.933 155.49 139.49 154.933 139.49 154.245C139.49 153.557 138.933 153 138.245 153C137.557 153 137 153.557 137 154.245C137 154.933 137.557 155.49 138.245 155.49Z" fill="#FF6446"></path><path d="M153.245 155.49C153.933 155.49 154.49 154.933 154.49 154.245C154.49 153.557 153.933 153 153.245 153C152.557 153 152 153.557 152 154.245C152 154.933 152.557 155.49 153.245 155.49Z" fill="#FF6446"></path><path d="M168.245 155.49C168.933 155.49 169.49 154.933 169.49 154.245C169.49 153.557 168.933 153 168.245 153C167.557 153 167 153.557 167 154.245C167 154.933 167.557 155.49 168.245 155.49Z" fill="#FF6446"></path><path d="M1.245 155.49C1.93259 155.49 2.49 154.933 2.49 154.245C2.49 153.557 1.93259 153 1.245 153C0.557405 153 0 153.557 0 154.245C0 154.933 0.557405 155.49 1.245 155.49Z" fill="#FF6446"></path><path d="M185.49 154.245C185.49 154.491 185.417 154.732 185.28 154.937C185.143 155.141 184.949 155.301 184.721 155.395C184.494 155.489 184.244 155.514 184.002 155.466C183.761 155.418 183.539 155.299 183.365 155.125C183.191 154.951 183.072 154.729 183.024 154.488C182.976 154.246 183.001 153.996 183.095 153.769C183.189 153.541 183.349 153.347 183.553 153.21C183.758 153.073 183.999 153 184.245 153C184.575 153 184.892 153.131 185.125 153.365C185.359 153.598 185.49 153.915 185.49 154.245Z" fill="#FF6446"></path><path d="M17.49 154.245C17.49 154.491 17.417 154.732 17.2802 154.937C17.1434 155.141 16.9489 155.301 16.7214 155.395C16.494 155.489 16.2436 155.514 16.0021 155.466C15.7606 155.418 15.5388 155.299 15.3647 155.125C15.1905 154.951 15.072 154.729 15.0239 154.488C14.9759 154.246 15.0005 153.996 15.0948 153.769C15.189 153.541 15.3486 153.347 15.5533 153.21C15.7581 153.073 15.9988 153 16.245 153C16.5752 153 16.8919 153.131 17.1253 153.365C17.3588 153.598 17.49 153.915 17.49 154.245Z" fill="#FF6446"></path><path d="M199.245 155.49C199.933 155.49 200.49 154.933 200.49 154.245C200.49 153.557 199.933 153 199.245 153C198.557 153 198 153.557 198 154.245C198 154.933 198.557 155.49 199.245 155.49Z" fill="#FF6446"></path><path d="M31.245 155.49C31.9326 155.49 32.49 154.933 32.49 154.245C32.49 153.557 31.9326 153 31.245 153C30.5574 153 30 153.557 30 154.245C30 154.933 30.5574 155.49 31.245 155.49Z" fill="#FF6446"></path><path d="M214.245 155.49C214.933 155.49 215.49 154.933 215.49 154.245C215.49 153.557 214.933 153 214.245 153C213.557 153 213 153.557 213 154.245C213 154.933 213.557 155.49 214.245 155.49Z" fill="#FF6446"></path><path d="M47.245 155.49C47.9326 155.49 48.49 154.933 48.49 154.245C48.49 153.557 47.9326 153 47.245 153C46.5574 153 46 153.557 46 154.245C46 154.933 46.5574 155.49 47.245 155.49Z" fill="#FF6446"></path><path d="M229.245 155.49C229.933 155.49 230.49 154.933 230.49 154.245C230.49 153.557 229.933 153 229.245 153C228.557 153 228 153.557 228 154.245C228 154.933 228.557 155.49 229.245 155.49Z" fill="#FF6446"></path><path d="M62.245 155.49C62.9326 155.49 63.49 154.933 63.49 154.245C63.49 153.557 62.9326 153 62.245 153C61.5574 153 61 153.557 61 154.245C61 154.933 61.5574 155.49 62.245 155.49Z" fill="#FF6446"></path><path d="M245.245 155.49C245.933 155.49 246.49 154.933 246.49 154.245C246.49 153.557 245.933 153 245.245 153C244.557 153 244 153.557 244 154.245C244 154.933 244.557 155.49 245.245 155.49Z" fill="#FF6446"></path><path d="M77.245 155.49C77.9326 155.49 78.49 154.933 78.49 154.245C78.49 153.557 77.9326 153 77.245 153C76.5574 153 76 153.557 76 154.245C76 154.933 76.5574 155.49 77.245 155.49Z" fill="#FF6446"></path><path d="M260.245 155.49C260.933 155.49 261.49 154.933 261.49 154.245C261.49 153.557 260.933 153 260.245 153C259.557 153 259 153.557 259 154.245C259 154.933 259.557 155.49 260.245 155.49Z" fill="#FF6446"></path><path d="M92.245 155.49C92.9326 155.49 93.49 154.933 93.49 154.245C93.49 153.557 92.9326 153 92.245 153C91.5574 153 91 153.557 91 154.245C91 154.933 91.5574 155.49 92.245 155.49Z" fill="#FF6446"></path><path d="M275.245 155.49C275.933 155.49 276.49 154.933 276.49 154.245C276.49 153.557 275.933 153 275.245 153C274.557 153 274 153.557 274 154.245C274 154.933 274.557 155.49 275.245 155.49Z" fill="#FF6446"></path><path d="M108.245 155.49C108.933 155.49 109.49 154.933 109.49 154.245C109.49 153.557 108.933 153 108.245 153C107.557 153 107 153.557 107 154.245C107 154.933 107.557 155.49 108.245 155.49Z" fill="#FF6446"></path><path d="M123.245 172.49C123.933 172.49 124.49 171.933 124.49 171.245C124.49 170.557 123.933 170 123.245 170C122.557 170 122 170.557 122 171.245C122 171.933 122.557 172.49 123.245 172.49Z" fill="#FF6446"></path><path d="M138.245 172.49C138.933 172.49 139.49 171.933 139.49 171.245C139.49 170.557 138.933 170 138.245 170C137.557 170 137 170.557 137 171.245C137 171.933 137.557 172.49 138.245 172.49Z" fill="#FF6446"></path><path d="M153.245 172.49C153.933 172.49 154.49 171.933 154.49 171.245C154.49 170.557 153.933 170 153.245 170C152.557 170 152 170.557 152 171.245C152 171.933 152.557 172.49 153.245 172.49Z" fill="#FF6446"></path><path d="M168.245 172.49C168.933 172.49 169.49 171.933 169.49 171.245C169.49 170.557 168.933 170 168.245 170C167.557 170 167 170.557 167 171.245C167 171.933 167.557 172.49 168.245 172.49Z" fill="#FF6446"></path><path d="M1.245 172.49C1.93259 172.49 2.49 171.933 2.49 171.245C2.49 170.557 1.93259 170 1.245 170C0.557405 170 0 170.557 0 171.245C0 171.933 0.557405 172.49 1.245 172.49Z" fill="#FF6446"></path><path d="M185.49 171.245C185.49 171.491 185.417 171.732 185.28 171.937C185.143 172.141 184.949 172.301 184.721 172.395C184.494 172.489 184.244 172.514 184.002 172.466C183.761 172.418 183.539 172.299 183.365 172.125C183.191 171.951 183.072 171.729 183.024 171.488C182.976 171.246 183.001 170.996 183.095 170.769C183.189 170.541 183.349 170.347 183.553 170.21C183.758 170.073 183.999 170 184.245 170C184.575 170 184.892 170.131 185.125 170.365C185.359 170.598 185.49 170.915 185.49 171.245Z" fill="#FF6446"></path><path d="M17.49 171.245C17.49 171.491 17.417 171.732 17.2802 171.937C17.1434 172.141 16.9489 172.301 16.7214 172.395C16.494 172.489 16.2436 172.514 16.0021 172.466C15.7606 172.418 15.5388 172.299 15.3647 172.125C15.1905 171.951 15.072 171.729 15.0239 171.488C14.9759 171.246 15.0005 170.996 15.0948 170.769C15.189 170.541 15.3486 170.347 15.5533 170.21C15.7581 170.073 15.9988 170 16.245 170C16.5752 170 16.8919 170.131 17.1253 170.365C17.3588 170.598 17.49 170.915 17.49 171.245Z" fill="#FF6446"></path><path d="M199.245 172.49C199.933 172.49 200.49 171.933 200.49 171.245C200.49 170.557 199.933 170 199.245 170C198.557 170 198 170.557 198 171.245C198 171.933 198.557 172.49 199.245 172.49Z" fill="#FF6446"></path><path d="M31.245 172.49C31.9326 172.49 32.49 171.933 32.49 171.245C32.49 170.557 31.9326 170 31.245 170C30.5574 170 30 170.557 30 171.245C30 171.933 30.5574 172.49 31.245 172.49Z" fill="#FF6446"></path><path d="M214.245 172.49C214.933 172.49 215.49 171.933 215.49 171.245C215.49 170.557 214.933 170 214.245 170C213.557 170 213 170.557 213 171.245C213 171.933 213.557 172.49 214.245 172.49Z" fill="#FF6446"></path><path d="M47.245 172.49C47.9326 172.49 48.49 171.933 48.49 171.245C48.49 170.557 47.9326 170 47.245 170C46.5574 170 46 170.557 46 171.245C46 171.933 46.5574 172.49 47.245 172.49Z" fill="#FF6446"></path><path d="M229.245 172.49C229.933 172.49 230.49 171.933 230.49 171.245C230.49 170.557 229.933 170 229.245 170C228.557 170 228 170.557 228 171.245C228 171.933 228.557 172.49 229.245 172.49Z" fill="#FF6446"></path><path d="M62.245 172.49C62.9326 172.49 63.49 171.933 63.49 171.245C63.49 170.557 62.9326 170 62.245 170C61.5574 170 61 170.557 61 171.245C61 171.933 61.5574 172.49 62.245 172.49Z" fill="#FF6446"></path><path d="M245.245 172.49C245.933 172.49 246.49 171.933 246.49 171.245C246.49 170.557 245.933 170 245.245 170C244.557 170 244 170.557 244 171.245C244 171.933 244.557 172.49 245.245 172.49Z" fill="#FF6446"></path><path d="M77.245 172.49C77.9326 172.49 78.49 171.933 78.49 171.245C78.49 170.557 77.9326 170 77.245 170C76.5574 170 76 170.557 76 171.245C76 171.933 76.5574 172.49 77.245 172.49Z" fill="#FF6446"></path><path d="M260.245 172.49C260.933 172.49 261.49 171.933 261.49 171.245C261.49 170.557 260.933 170 260.245 170C259.557 170 259 170.557 259 171.245C259 171.933 259.557 172.49 260.245 172.49Z" fill="#FF6446"></path><path d="M92.245 172.49C92.9326 172.49 93.49 171.933 93.49 171.245C93.49 170.557 92.9326 170 92.245 170C91.5574 170 91 170.557 91 171.245C91 171.933 91.5574 172.49 92.245 172.49Z" fill="#FF6446"></path><path d="M275.245 172.49C275.933 172.49 276.49 171.933 276.49 171.245C276.49 170.557 275.933 170 275.245 170C274.557 170 274 170.557 274 171.245C274 171.933 274.557 172.49 275.245 172.49Z" fill="#FF6446"></path><path d="M108.245 172.49C108.933 172.49 109.49 171.933 109.49 171.245C109.49 170.557 108.933 170 108.245 170C107.557 170 107 170.557 107 171.245C107 171.933 107.557 172.49 108.245 172.49Z" fill="#FF6446"></path><path d="M123.245 189.49C123.933 189.49 124.49 188.933 124.49 188.245C124.49 187.557 123.933 187 123.245 187C122.557 187 122 187.557 122 188.245C122 188.933 122.557 189.49 123.245 189.49Z" fill="#FF6446"></path><path d="M138.245 189.49C138.933 189.49 139.49 188.933 139.49 188.245C139.49 187.557 138.933 187 138.245 187C137.557 187 137 187.557 137 188.245C137 188.933 137.557 189.49 138.245 189.49Z" fill="#FF6446"></path><path d="M153.245 189.49C153.933 189.49 154.49 188.933 154.49 188.245C154.49 187.557 153.933 187 153.245 187C152.557 187 152 187.557 152 188.245C152 188.933 152.557 189.49 153.245 189.49Z" fill="#FF6446"></path><path d="M168.245 189.49C168.933 189.49 169.49 188.933 169.49 188.245C169.49 187.557 168.933 187 168.245 187C167.557 187 167 187.557 167 188.245C167 188.933 167.557 189.49 168.245 189.49Z" fill="#FF6446"></path><path d="M1.245 189.49C1.93259 189.49 2.49 188.933 2.49 188.245C2.49 187.557 1.93259 187 1.245 187C0.557405 187 0 187.557 0 188.245C0 188.933 0.557405 189.49 1.245 189.49Z" fill="#FF6446"></path><path d="M185.49 188.245C185.49 188.491 185.417 188.732 185.28 188.937C185.143 189.141 184.949 189.301 184.721 189.395C184.494 189.489 184.244 189.514 184.002 189.466C183.761 189.418 183.539 189.299 183.365 189.125C183.191 188.951 183.072 188.729 183.024 188.488C182.976 188.246 183.001 187.996 183.095 187.769C183.189 187.541 183.349 187.347 183.553 187.21C183.758 187.073 183.999 187 184.245 187C184.575 187 184.892 187.131 185.125 187.365C185.359 187.598 185.49 187.915 185.49 188.245Z" fill="#FF6446"></path><path d="M17.49 188.245C17.49 188.491 17.417 188.732 17.2802 188.937C17.1434 189.141 16.9489 189.301 16.7214 189.395C16.494 189.489 16.2436 189.514 16.0021 189.466C15.7606 189.418 15.5388 189.299 15.3647 189.125C15.1905 188.951 15.072 188.729 15.0239 188.488C14.9759 188.246 15.0005 187.996 15.0948 187.769C15.189 187.541 15.3486 187.347 15.5533 187.21C15.7581 187.073 15.9988 187 16.245 187C16.5752 187 16.8919 187.131 17.1253 187.365C17.3588 187.598 17.49 187.915 17.49 188.245Z" fill="#FF6446"></path><path d="M199.245 189.49C199.933 189.49 200.49 188.933 200.49 188.245C200.49 187.557 199.933 187 199.245 187C198.557 187 198 187.557 198 188.245C198 188.933 198.557 189.49 199.245 189.49Z" fill="#FF6446"></path><path d="M31.245 189.49C31.9326 189.49 32.49 188.933 32.49 188.245C32.49 187.557 31.9326 187 31.245 187C30.5574 187 30 187.557 30 188.245C30 188.933 30.5574 189.49 31.245 189.49Z" fill="#FF6446"></path><path d="M214.245 189.49C214.933 189.49 215.49 188.933 215.49 188.245C215.49 187.557 214.933 187 214.245 187C213.557 187 213 187.557 213 188.245C213 188.933 213.557 189.49 214.245 189.49Z" fill="#FF6446"></path><path d="M47.245 189.49C47.9326 189.49 48.49 188.933 48.49 188.245C48.49 187.557 47.9326 187 47.245 187C46.5574 187 46 187.557 46 188.245C46 188.933 46.5574 189.49 47.245 189.49Z" fill="#FF6446"></path><path d="M229.245 189.49C229.933 189.49 230.49 188.933 230.49 188.245C230.49 187.557 229.933 187 229.245 187C228.557 187 228 187.557 228 188.245C228 188.933 228.557 189.49 229.245 189.49Z" fill="#FF6446"></path><path d="M62.245 189.49C62.9326 189.49 63.49 188.933 63.49 188.245C63.49 187.557 62.9326 187 62.245 187C61.5574 187 61 187.557 61 188.245C61 188.933 61.5574 189.49 62.245 189.49Z" fill="#FF6446"></path><path d="M245.245 189.49C245.933 189.49 246.49 188.933 246.49 188.245C246.49 187.557 245.933 187 245.245 187C244.557 187 244 187.557 244 188.245C244 188.933 244.557 189.49 245.245 189.49Z" fill="#FF6446"></path><path d="M77.245 189.49C77.9326 189.49 78.49 188.933 78.49 188.245C78.49 187.557 77.9326 187 77.245 187C76.5574 187 76 187.557 76 188.245C76 188.933 76.5574 189.49 77.245 189.49Z" fill="#FF6446"></path><path d="M260.245 189.49C260.933 189.49 261.49 188.933 261.49 188.245C261.49 187.557 260.933 187 260.245 187C259.557 187 259 187.557 259 188.245C259 188.933 259.557 189.49 260.245 189.49Z" fill="#FF6446"></path><path d="M92.245 189.49C92.9326 189.49 93.49 188.933 93.49 188.245C93.49 187.557 92.9326 187 92.245 187C91.5574 187 91 187.557 91 188.245C91 188.933 91.5574 189.49 92.245 189.49Z" fill="#FF6446"></path><path d="M275.245 189.49C275.933 189.49 276.49 188.933 276.49 188.245C276.49 187.557 275.933 187 275.245 187C274.557 187 274 187.557 274 188.245C274 188.933 274.557 189.49 275.245 189.49Z" fill="#FF6446"></path><path d="M108.245 189.49C108.933 189.49 109.49 188.933 109.49 188.245C109.49 187.557 108.933 187 108.245 187C107.557 187 107 187.557 107 188.245C107 188.933 107.557 189.49 108.245 189.49Z" fill="#FF6446"></path><path d="M123.245 206.49C123.933 206.49 124.49 205.933 124.49 205.245C124.49 204.557 123.933 204 123.245 204C122.557 204 122 204.557 122 205.245C122 205.933 122.557 206.49 123.245 206.49Z" fill="#FF6446"></path><path d="M138.245 206.49C138.933 206.49 139.49 205.933 139.49 205.245C139.49 204.557 138.933 204 138.245 204C137.557 204 137 204.557 137 205.245C137 205.933 137.557 206.49 138.245 206.49Z" fill="#FF6446"></path><path d="M153.245 206.49C153.933 206.49 154.49 205.933 154.49 205.245C154.49 204.557 153.933 204 153.245 204C152.557 204 152 204.557 152 205.245C152 205.933 152.557 206.49 153.245 206.49Z" fill="#FF6446"></path><path d="M168.245 206.49C168.933 206.49 169.49 205.933 169.49 205.245C169.49 204.557 168.933 204 168.245 204C167.557 204 167 204.557 167 205.245C167 205.933 167.557 206.49 168.245 206.49Z" fill="#FF6446"></path><path d="M1.245 206.49C1.93259 206.49 2.49 205.933 2.49 205.245C2.49 204.557 1.93259 204 1.245 204C0.557405 204 0 204.557 0 205.245C0 205.933 0.557405 206.49 1.245 206.49Z" fill="#FF6446"></path><path d="M185.49 205.245C185.49 205.491 185.417 205.732 185.28 205.937C185.143 206.141 184.949 206.301 184.721 206.395C184.494 206.489 184.244 206.514 184.002 206.466C183.761 206.418 183.539 206.299 183.365 206.125C183.191 205.951 183.072 205.729 183.024 205.488C182.976 205.246 183.001 204.996 183.095 204.769C183.189 204.541 183.349 204.347 183.553 204.21C183.758 204.073 183.999 204 184.245 204C184.575 204 184.892 204.131 185.125 204.365C185.359 204.598 185.49 204.915 185.49 205.245Z" fill="#FF6446"></path><path d="M17.49 205.245C17.49 205.491 17.417 205.732 17.2802 205.937C17.1434 206.141 16.9489 206.301 16.7214 206.395C16.494 206.489 16.2436 206.514 16.0021 206.466C15.7606 206.418 15.5388 206.299 15.3647 206.125C15.1905 205.951 15.072 205.729 15.0239 205.488C14.9759 205.246 15.0005 204.996 15.0948 204.769C15.189 204.541 15.3486 204.347 15.5533 204.21C15.7581 204.073 15.9988 204 16.245 204C16.5752 204 16.8919 204.131 17.1253 204.365C17.3588 204.598 17.49 204.915 17.49 205.245Z" fill="#FF6446"></path><path d="M199.245 206.49C199.933 206.49 200.49 205.933 200.49 205.245C200.49 204.557 199.933 204 199.245 204C198.557 204 198 204.557 198 205.245C198 205.933 198.557 206.49 199.245 206.49Z" fill="#FF6446"></path><path d="M31.245 206.49C31.9326 206.49 32.49 205.933 32.49 205.245C32.49 204.557 31.9326 204 31.245 204C30.5574 204 30 204.557 30 205.245C30 205.933 30.5574 206.49 31.245 206.49Z" fill="#FF6446"></path><path d="M214.245 206.49C214.933 206.49 215.49 205.933 215.49 205.245C215.49 204.557 214.933 204 214.245 204C213.557 204 213 204.557 213 205.245C213 205.933 213.557 206.49 214.245 206.49Z" fill="#FF6446"></path><path d="M47.245 206.49C47.9326 206.49 48.49 205.933 48.49 205.245C48.49 204.557 47.9326 204 47.245 204C46.5574 204 46 204.557 46 205.245C46 205.933 46.5574 206.49 47.245 206.49Z" fill="#FF6446"></path><path d="M229.245 206.49C229.933 206.49 230.49 205.933 230.49 205.245C230.49 204.557 229.933 204 229.245 204C228.557 204 228 204.557 228 205.245C228 205.933 228.557 206.49 229.245 206.49Z" fill="#FF6446"></path><path d="M62.245 206.49C62.9326 206.49 63.49 205.933 63.49 205.245C63.49 204.557 62.9326 204 62.245 204C61.5574 204 61 204.557 61 205.245C61 205.933 61.5574 206.49 62.245 206.49Z" fill="#FF6446"></path><path d="M245.245 206.49C245.933 206.49 246.49 205.933 246.49 205.245C246.49 204.557 245.933 204 245.245 204C244.557 204 244 204.557 244 205.245C244 205.933 244.557 206.49 245.245 206.49Z" fill="#FF6446"></path><path d="M77.245 206.49C77.9326 206.49 78.49 205.933 78.49 205.245C78.49 204.557 77.9326 204 77.245 204C76.5574 204 76 204.557 76 205.245C76 205.933 76.5574 206.49 77.245 206.49Z" fill="#FF6446"></path><path d="M260.245 206.49C260.933 206.49 261.49 205.933 261.49 205.245C261.49 204.557 260.933 204 260.245 204C259.557 204 259 204.557 259 205.245C259 205.933 259.557 206.49 260.245 206.49Z" fill="#FF6446"></path><path d="M92.245 206.49C92.9326 206.49 93.49 205.933 93.49 205.245C93.49 204.557 92.9326 204 92.245 204C91.5574 204 91 204.557 91 205.245C91 205.933 91.5574 206.49 92.245 206.49Z" fill="#FF6446"></path><path d="M275.245 206.49C275.933 206.49 276.49 205.933 276.49 205.245C276.49 204.557 275.933 204 275.245 204C274.557 204 274 204.557 274 205.245C274 205.933 274.557 206.49 275.245 206.49Z" fill="#FF6446"></path><path d="M108.245 206.49C108.933 206.49 109.49 205.933 109.49 205.245C109.49 204.557 108.933 204 108.245 204C107.557 204 107 204.557 107 205.245C107 205.933 107.557 206.49 108.245 206.49Z" fill="#FF6446"></path><path d="M123.245 223.49C123.933 223.49 124.49 222.933 124.49 222.245C124.49 221.557 123.933 221 123.245 221C122.557 221 122 221.557 122 222.245C122 222.933 122.557 223.49 123.245 223.49Z" fill="#FF6446"></path><path d="M138.245 223.49C138.933 223.49 139.49 222.933 139.49 222.245C139.49 221.557 138.933 221 138.245 221C137.557 221 137 221.557 137 222.245C137 222.933 137.557 223.49 138.245 223.49Z" fill="#FF6446"></path><path d="M153.245 223.49C153.933 223.49 154.49 222.933 154.49 222.245C154.49 221.557 153.933 221 153.245 221C152.557 221 152 221.557 152 222.245C152 222.933 152.557 223.49 153.245 223.49Z" fill="#FF6446"></path><path d="M168.245 223.49C168.933 223.49 169.49 222.933 169.49 222.245C169.49 221.557 168.933 221 168.245 221C167.557 221 167 221.557 167 222.245C167 222.933 167.557 223.49 168.245 223.49Z" fill="#FF6446"></path><path d="M1.245 223.49C1.93259 223.49 2.49 222.933 2.49 222.245C2.49 221.557 1.93259 221 1.245 221C0.557405 221 0 221.557 0 222.245C0 222.933 0.557405 223.49 1.245 223.49Z" fill="#FF6446"></path><path d="M185.49 222.245C185.49 222.491 185.417 222.732 185.28 222.937C185.143 223.141 184.949 223.301 184.721 223.395C184.494 223.489 184.244 223.514 184.002 223.466C183.761 223.418 183.539 223.299 183.365 223.125C183.191 222.951 183.072 222.729 183.024 222.488C182.976 222.246 183.001 221.996 183.095 221.769C183.189 221.541 183.349 221.347 183.553 221.21C183.758 221.073 183.999 221 184.245 221C184.575 221 184.892 221.131 185.125 221.365C185.359 221.598 185.49 221.915 185.49 222.245Z" fill="#FF6446"></path><path d="M17.49 222.245C17.49 222.491 17.417 222.732 17.2802 222.937C17.1434 223.141 16.9489 223.301 16.7214 223.395C16.494 223.489 16.2436 223.514 16.0021 223.466C15.7606 223.418 15.5388 223.299 15.3647 223.125C15.1905 222.951 15.072 222.729 15.0239 222.488C14.9759 222.246 15.0005 221.996 15.0948 221.769C15.189 221.541 15.3486 221.347 15.5533 221.21C15.7581 221.073 15.9988 221 16.245 221C16.5752 221 16.8919 221.131 17.1253 221.365C17.3588 221.598 17.49 221.915 17.49 222.245Z" fill="#FF6446"></path><path d="M199.245 223.49C199.933 223.49 200.49 222.933 200.49 222.245C200.49 221.557 199.933 221 199.245 221C198.557 221 198 221.557 198 222.245C198 222.933 198.557 223.49 199.245 223.49Z" fill="#FF6446"></path><path d="M31.245 223.49C31.9326 223.49 32.49 222.933 32.49 222.245C32.49 221.557 31.9326 221 31.245 221C30.5574 221 30 221.557 30 222.245C30 222.933 30.5574 223.49 31.245 223.49Z" fill="#FF6446"></path><path d="M214.245 223.49C214.933 223.49 215.49 222.933 215.49 222.245C215.49 221.557 214.933 221 214.245 221C213.557 221 213 221.557 213 222.245C213 222.933 213.557 223.49 214.245 223.49Z" fill="#FF6446"></path><path d="M47.245 223.49C47.9326 223.49 48.49 222.933 48.49 222.245C48.49 221.557 47.9326 221 47.245 221C46.5574 221 46 221.557 46 222.245C46 222.933 46.5574 223.49 47.245 223.49Z" fill="#FF6446"></path><path d="M229.245 223.49C229.933 223.49 230.49 222.933 230.49 222.245C230.49 221.557 229.933 221 229.245 221C228.557 221 228 221.557 228 222.245C228 222.933 228.557 223.49 229.245 223.49Z" fill="#FF6446"></path><path d="M62.245 223.49C62.9326 223.49 63.49 222.933 63.49 222.245C63.49 221.557 62.9326 221 62.245 221C61.5574 221 61 221.557 61 222.245C61 222.933 61.5574 223.49 62.245 223.49Z" fill="#FF6446"></path><path d="M245.245 223.49C245.933 223.49 246.49 222.933 246.49 222.245C246.49 221.557 245.933 221 245.245 221C244.557 221 244 221.557 244 222.245C244 222.933 244.557 223.49 245.245 223.49Z" fill="#FF6446"></path><path d="M77.245 223.49C77.9326 223.49 78.49 222.933 78.49 222.245C78.49 221.557 77.9326 221 77.245 221C76.5574 221 76 221.557 76 222.245C76 222.933 76.5574 223.49 77.245 223.49Z" fill="#FF6446"></path><path d="M260.245 223.49C260.933 223.49 261.49 222.933 261.49 222.245C261.49 221.557 260.933 221 260.245 221C259.557 221 259 221.557 259 222.245C259 222.933 259.557 223.49 260.245 223.49Z" fill="#FF6446"></path><path d="M92.245 223.49C92.9326 223.49 93.49 222.933 93.49 222.245C93.49 221.557 92.9326 221 92.245 221C91.5574 221 91 221.557 91 222.245C91 222.933 91.5574 223.49 92.245 223.49Z" fill="#FF6446"></path><path d="M275.245 223.49C275.933 223.49 276.49 222.933 276.49 222.245C276.49 221.557 275.933 221 275.245 221C274.557 221 274 221.557 274 222.245C274 222.933 274.557 223.49 275.245 223.49Z" fill="#FF6446"></path><path d="M108.245 223.49C108.933 223.49 109.49 222.933 109.49 222.245C109.49 221.557 108.933 221 108.245 221C107.557 221 107 221.557 107 222.245C107 222.933 107.557 223.49 108.245 223.49Z" fill="#FF6446"></path><path d="M123.245 240.49C123.933 240.49 124.49 239.933 124.49 239.245C124.49 238.557 123.933 238 123.245 238C122.557 238 122 238.557 122 239.245C122 239.933 122.557 240.49 123.245 240.49Z" fill="#FF6446"></path><path d="M138.245 240.49C138.933 240.49 139.49 239.933 139.49 239.245C139.49 238.557 138.933 238 138.245 238C137.557 238 137 238.557 137 239.245C137 239.933 137.557 240.49 138.245 240.49Z" fill="#FF6446"></path><path d="M153.245 240.49C153.933 240.49 154.49 239.933 154.49 239.245C154.49 238.557 153.933 238 153.245 238C152.557 238 152 238.557 152 239.245C152 239.933 152.557 240.49 153.245 240.49Z" fill="#FF6446"></path><path d="M168.245 240.49C168.933 240.49 169.49 239.933 169.49 239.245C169.49 238.557 168.933 238 168.245 238C167.557 238 167 238.557 167 239.245C167 239.933 167.557 240.49 168.245 240.49Z" fill="#FF6446"></path><path d="M1.245 240.49C1.93259 240.49 2.49 239.933 2.49 239.245C2.49 238.557 1.93259 238 1.245 238C0.557405 238 0 238.557 0 239.245C0 239.933 0.557405 240.49 1.245 240.49Z" fill="#FF6446"></path><path d="M185.49 239.245C185.49 239.491 185.417 239.732 185.28 239.937C185.143 240.141 184.949 240.301 184.721 240.395C184.494 240.489 184.244 240.514 184.002 240.466C183.761 240.418 183.539 240.299 183.365 240.125C183.191 239.951 183.072 239.729 183.024 239.488C182.976 239.246 183.001 238.996 183.095 238.769C183.189 238.541 183.349 238.347 183.553 238.21C183.758 238.073 183.999 238 184.245 238C184.575 238 184.892 238.131 185.125 238.365C185.359 238.598 185.49 238.915 185.49 239.245Z" fill="#FF6446"></path><path d="M17.49 239.245C17.49 239.491 17.417 239.732 17.2802 239.937C17.1434 240.141 16.9489 240.301 16.7214 240.395C16.494 240.489 16.2436 240.514 16.0021 240.466C15.7606 240.418 15.5388 240.299 15.3647 240.125C15.1905 239.951 15.072 239.729 15.0239 239.488C14.9759 239.246 15.0005 238.996 15.0948 238.769C15.189 238.541 15.3486 238.347 15.5533 238.21C15.7581 238.073 15.9988 238 16.245 238C16.5752 238 16.8919 238.131 17.1253 238.365C17.3588 238.598 17.49 238.915 17.49 239.245Z" fill="#FF6446"></path><path d="M199.245 240.49C199.933 240.49 200.49 239.933 200.49 239.245C200.49 238.557 199.933 238 199.245 238C198.557 238 198 238.557 198 239.245C198 239.933 198.557 240.49 199.245 240.49Z" fill="#FF6446"></path><path d="M31.245 240.49C31.9326 240.49 32.49 239.933 32.49 239.245C32.49 238.557 31.9326 238 31.245 238C30.5574 238 30 238.557 30 239.245C30 239.933 30.5574 240.49 31.245 240.49Z" fill="#FF6446"></path><path d="M214.245 240.49C214.933 240.49 215.49 239.933 215.49 239.245C215.49 238.557 214.933 238 214.245 238C213.557 238 213 238.557 213 239.245C213 239.933 213.557 240.49 214.245 240.49Z" fill="#FF6446"></path><path d="M47.245 240.49C47.9326 240.49 48.49 239.933 48.49 239.245C48.49 238.557 47.9326 238 47.245 238C46.5574 238 46 238.557 46 239.245C46 239.933 46.5574 240.49 47.245 240.49Z" fill="#FF6446"></path><path d="M229.245 240.49C229.933 240.49 230.49 239.933 230.49 239.245C230.49 238.557 229.933 238 229.245 238C228.557 238 228 238.557 228 239.245C228 239.933 228.557 240.49 229.245 240.49Z" fill="#FF6446"></path><path d="M62.245 240.49C62.9326 240.49 63.49 239.933 63.49 239.245C63.49 238.557 62.9326 238 62.245 238C61.5574 238 61 238.557 61 239.245C61 239.933 61.5574 240.49 62.245 240.49Z" fill="#FF6446"></path><path d="M245.245 240.49C245.933 240.49 246.49 239.933 246.49 239.245C246.49 238.557 245.933 238 245.245 238C244.557 238 244 238.557 244 239.245C244 239.933 244.557 240.49 245.245 240.49Z" fill="#FF6446"></path><path d="M77.245 240.49C77.9326 240.49 78.49 239.933 78.49 239.245C78.49 238.557 77.9326 238 77.245 238C76.5574 238 76 238.557 76 239.245C76 239.933 76.5574 240.49 77.245 240.49Z" fill="#FF6446"></path><path d="M260.245 240.49C260.933 240.49 261.49 239.933 261.49 239.245C261.49 238.557 260.933 238 260.245 238C259.557 238 259 238.557 259 239.245C259 239.933 259.557 240.49 260.245 240.49Z" fill="#FF6446"></path><path d="M92.245 240.49C92.9326 240.49 93.49 239.933 93.49 239.245C93.49 238.557 92.9326 238 92.245 238C91.5574 238 91 238.557 91 239.245C91 239.933 91.5574 240.49 92.245 240.49Z" fill="#FF6446"></path><path d="M275.245 240.49C275.933 240.49 276.49 239.933 276.49 239.245C276.49 238.557 275.933 238 275.245 238C274.557 238 274 238.557 274 239.245C274 239.933 274.557 240.49 275.245 240.49Z" fill="#FF6446"></path><path d="M108.245 240.49C108.933 240.49 109.49 239.933 109.49 239.245C109.49 238.557 108.933 238 108.245 238C107.557 238 107 238.557 107 239.245C107 239.933 107.557 240.49 108.245 240.49Z" fill="#FF6446"></path></svg>